<svg width="2221" height="1110" viewBox="0 0 2221 1110" fill="none" xmlns="http://www.w3.org/2000/svg">
<g clip-path="url(#clip0_112_563)">
<path d="M2219.56 499.5C2187.16 498.584 2154.59 499.5 2122.45 496.281C2079.36 491.952 2038.83 477.189 1998.77 460.872C1943.72 438.395 1890.66 412.726 1843.19 376.262C1831.47 367.244 1817.9 360.278 1804.43 353.979C1755.57 331.196 1710.21 347.957 1673.87 378.593C1633.01 413.031 1618.4 459.79 1607.1 509.129C1600.97 535.88 1593.11 562.465 1583.45 588.161C1571.4 620.157 1545.14 638.361 1514.41 650.738C1482.29 663.669 1448.92 670.94 1414.49 674.519C1387.56 677.294 1360.66 680.902 1334.01 685.675C1307.72 690.365 1300.75 706.626 1303.47 735.375C1304.58 746.975 1307.28 758.491 1307.39 770.063C1307.86 813.519 1307.94 857.003 1307.44 900.488C1307.08 931.262 1307.05 962.37 1320.55 990.453C1332.23 1014.76 1350.75 1032.36 1381.15 1032.49C1424.65 1032.69 1468.27 1036.57 1511.6 1034.46C1566.79 1031.77 1617.04 1010.68 1665.9 985.514C1693.47 971.306 1722.59 959.678 1751.94 949.55C1770.43 943.167 1790.53 940.892 1810.1 938.117C1843.5 933.371 1873.87 920.967 1903.16 904.761C1930.25 889.776 1958.73 878.565 1990.55 879.703C2011.37 880.452 2032.22 882.644 2053.01 882.2C2097.35 881.285 2141.02 876.095 2182.16 857.586C2194.29 852.147 2207.09 848.207 2219.58 843.572" stroke="#8C949A" stroke-linecap="round" stroke-linejoin="round"/>
<path d="M2219.56 538.35C2203.82 536.491 2188.13 533.383 2172.36 533.022C2094.41 531.163 2022.64 509.379 1954.13 472.333C1913.93 450.605 1874.81 427.766 1837.64 401.293C1824.09 391.664 1808.54 384.559 1793.36 377.566C1763.65 363.886 1734.47 368.27 1707.49 384.56C1667.32 408.813 1646.72 447.163 1635.23 491.203C1628.48 517.038 1621.4 542.818 1615.93 568.931C1605.38 619.158 1575.84 651.875 1526.84 665.75C1492.53 675.463 1457.44 682.4 1422.85 691.114C1405.11 695.582 1386.98 699.605 1370.24 706.654C1346.7 716.56 1335.68 736.485 1335.45 761.765C1335.12 802.475 1334.82 843.184 1335.62 883.865C1335.98 901.931 1336.93 920.495 1341.4 937.867C1349.92 971.056 1373.77 991.036 1406.27 998.584C1428.4 1003.72 1451.44 1005.63 1474.21 1007.05C1496.33 1008.43 1518.68 1008.41 1540.81 1007.1C1574.18 1005.13 1605.27 993.7 1635.14 979.464C1673.68 961.121 1710.74 939.449 1751.85 927.044C1776.53 919.607 1802.27 915.389 1826.59 906.953C1844.99 900.571 1862.26 890.47 1879.42 880.924C1901.02 868.88 1920.76 852.258 1946.19 849.566C1965.4 847.54 1985.44 846.486 2004.38 849.649C2070.23 860.611 2133.63 857.974 2193.32 824.314C2201.57 819.652 2210.84 816.793 2219.61 813.075" stroke="#8C949A" stroke-linecap="round" stroke-linejoin="round"/>
<path d="M1238.18 1.38751C1255.28 35.4645 1261.64 72.0113 1260.16 109.613C1257.55 177.212 1235.04 235.181 1180.29 279.415C1153.03 301.421 1129.07 327.894 1111.81 359.335C1097.54 385.337 1091.15 413.503 1088.32 442.612C1085.15 475.024 1076.49 503.635 1048.4 524.974C1028.77 539.904 1011.5 558.496 1002.09 582.694C996.122 598.096 991.513 613.719 996.927 629.814C1000.23 639.693 1004.62 651.209 1017.47 651.792C1027.85 652.264 1036.04 646.214 1041.04 636.835C1054.53 611.443 1068.44 586.246 1081.18 560.467C1099.81 522.81 1130.43 505.466 1171.55 505.105C1183.57 504.994 1195.81 504.717 1207.61 506.659C1236.68 511.405 1255.97 531.135 1274.35 552.142C1292.67 573.121 1306.5 597.929 1329.74 614.746C1362.22 638.278 1398.7 642.357 1436.65 636.529C1460.69 632.839 1484.31 626.234 1504.69 611.832C1537.31 588.744 1553.27 555.499 1560.05 517.482C1565.63 486.208 1570.26 454.711 1573.84 423.132C1576.23 402.181 1585.7 385.975 1600.44 371.794C1634.37 339.188 1671.87 312.049 1715.68 294.095C1749.27 280.303 1782.64 281.357 1814.07 298.646C1841.36 313.658 1867.45 330.947 1893.27 348.401C1935.97 377.261 1983.72 392.607 2033.61 402.208C2073.89 409.978 2114.62 413.725 2155.73 413.641C2177.03 413.586 2198.29 415.334 2219.58 416.25" stroke="#8C949A" stroke-linecap="round" stroke-linejoin="round"/>
<path d="M2219.56 585.525C2191.32 579.975 2163.2 573.87 2134.86 569.014C2097.63 562.631 2058.87 562.548 2023.97 546.37C1993.21 532.106 1962.65 516.899 1933.86 499.084C1899.44 477.772 1866.98 453.241 1833.64 430.153C1823.51 423.132 1813.96 414.918 1802.99 409.59C1770.84 393.995 1730.31 393.911 1701.47 422.91C1673.34 451.187 1660.54 485.93 1651.88 523.143C1645.44 550.782 1641.78 579.254 1633.31 606.227C1619.68 649.6 1586.89 672.938 1543.53 682.678C1506.52 691.003 1469.38 698.801 1432.54 707.875C1413.27 712.62 1394.03 717.698 1379.46 733.766C1366.52 748.029 1360.47 763.93 1360.33 782.578C1360.13 810.8 1359.08 839.077 1360.58 867.188C1362.36 900.488 1366.24 934.232 1396.59 955.682C1408.58 964.174 1422.93 969.585 1436.67 975.302C1462.83 986.207 1491.25 986.707 1518.52 987.123C1566.24 987.845 1611.57 973.72 1652.97 950.16C1695.97 925.685 1739.89 904.012 1787.75 890.72C1828.39 879.425 1858.4 852.869 1885.03 821.511C1897.35 807.026 1906.71 788.794 1926.64 782.855C1932.58 781.079 1940.25 780.746 1945.85 782.966C1957.9 787.739 1969.7 793.733 1980.61 800.782C2019.06 825.563 2061.73 830.252 2105.62 826.617C2132.08 824.425 2155.2 811.022 2177.78 797.757C2191.93 789.432 2205.59 780.275 2219.47 771.478" stroke="#8C949A" stroke-linecap="round" stroke-linejoin="round"/>
<path d="M1331.18 2.77497C1325.15 16.65 1317.52 30.0532 1313.47 44.4832C1303.25 80.7525 1294.37 117.41 1285.45 154.012C1275.77 193.945 1262.02 231.352 1231.43 261.016C1205.14 286.491 1177.43 311.383 1155.78 340.576C1136.12 367.049 1129.68 398.767 1147.53 431.762C1156.64 448.606 1171.94 454.267 1186.98 458.791C1239.45 474.58 1276.54 507.991 1305.17 553.39C1314.52 568.209 1326.85 581.64 1339.73 593.6C1369.88 621.544 1405.77 626.179 1445.03 617.604C1505.38 604.45 1532.17 561.216 1540.75 509.212C1546.11 476.662 1543.17 444.472 1538.36 412.032C1535.37 391.663 1539.92 371.406 1558.94 359.584C1607.57 329.337 1655.71 297.924 1706.32 271.312C1745.27 250.832 1787.75 257.215 1826.45 275.28C1858.65 290.293 1888.88 309.579 1919.65 327.589C1946.07 343.045 1973.89 355.949 2004.4 357.503C2048.38 359.751 2084.02 348.29 2094.29 292.735C2100.15 261.127 2104.29 229.076 2106.76 197.025C2110.04 154.651 2098.51 114.08 2087.8 73.5375C2081.5 49.7002 2076.55 25.4745 2071 1.41522" stroke="#8C949A" stroke-linecap="round" stroke-linejoin="round"/>
<path d="M1368.66 1.38751C1358.47 28.6658 1347.25 55.6388 1338.4 83.3333C1327.13 118.604 1315.83 154.068 1308.11 190.199C1299.17 231.962 1276.93 263.126 1243.95 288.878C1225.68 303.141 1208.14 318.875 1192.92 336.275C1184.76 345.599 1179.85 359.446 1177.63 371.961C1174.02 392.413 1183.93 408.619 1200.73 420.385C1208.39 425.768 1215.99 431.513 1224.35 435.536C1264.27 454.712 1289.67 487.817 1311.86 524.42C1320.82 539.21 1330.04 554.112 1341.12 567.321C1366.35 597.485 1400.69 608.807 1437.92 601.454C1478.43 593.462 1505.58 566.045 1515.38 525.779C1525.96 482.295 1517.13 441.669 1488 406.593C1480.48 397.519 1472.4 388.889 1464.44 380.203C1446.89 361.083 1452.03 338.606 1478.32 334.277C1500.16 330.697 1522.04 326.895 1543.53 321.734C1586.95 311.3 1626.15 291.486 1663.02 266.511C1694.28 245.338 1728.76 231.851 1766.98 236.347C1792.72 239.372 1818.51 245.144 1843.24 252.969C1877.11 263.681 1910.18 277.056 1943.27 290.099C1978.56 304.001 2008.4 296.87 2032.03 267.677C2057.4 236.291 2074.33 200.633 2073.36 159.59C2072.67 129.065 2061.62 100.344 2050.21 72.1778C2041.41 50.4495 2032.66 28.6935 2023.75 6.99301C2023.06 5.32801 2021.06 4.19026 2019.67 2.80276" stroke="#8C949A" stroke-linecap="round" stroke-linejoin="round"/>
<path d="M2219.56 463.425C2195.04 463.425 2170.5 463.786 2145.99 463.342C2115.2 462.787 2085.27 457.126 2055.71 448.357C2007.68 434.066 1959.79 419.441 1915.68 395.216C1894.58 383.616 1874.89 369.436 1854.46 356.643C1837.91 346.292 1821.73 335.165 1804.41 326.312C1769.82 308.663 1734.67 312.77 1702.1 330.752C1681.14 342.324 1662.24 358.058 1643.69 373.432C1612.71 399.156 1601.66 435.398 1593.36 473.11C1586.42 504.773 1580.31 536.963 1569.37 567.293C1552.61 613.691 1514.16 637.251 1468.54 649.073C1429.9 659.09 1390.28 661.671 1350.67 654.761C1324.99 650.294 1303.78 637.556 1286.68 617.521C1272.85 601.343 1258.55 585.525 1243.65 570.374C1221.96 548.312 1182.71 551.559 1164.52 567.377C1143.51 585.636 1127.02 605.81 1127.13 635.503C1127.24 666.722 1140.32 686.147 1170.22 697.857C1185.73 703.934 1201.73 708.791 1217.36 714.646C1252.11 727.688 1268.6 755.799 1276.88 789.571C1284.23 819.707 1283.68 850.177 1280.26 881.146C1274.52 933.455 1274.35 985.652 1292.09 1036.6C1300.11 1059.66 1305.3 1083.69 1311.77 1107.28" stroke="#8C949A" stroke-linecap="round" stroke-linejoin="round"/>
<path d="M1110.47 1.38751C1116.5 19.8968 1121.66 38.7113 1128.74 56.8043C1137.04 77.9775 1147.78 98.2073 1156.11 119.408C1170.44 155.872 1166.3 191.253 1141.87 221.584C1129.13 237.401 1112.08 250.583 1094.95 261.849C1066.97 280.275 1035.79 277.528 1005.01 269.12C970.692 259.712 936.6 249.361 902.203 240.315C892.459 237.734 881.632 236.264 871.776 237.679C849.9 240.87 839.906 253.219 835.575 277.5C832.105 296.953 829.828 316.849 824.109 335.664C817.03 358.863 808.23 381.729 797.819 403.624C786.159 428.127 778.469 453.296 774.083 480.019C772.417 490.204 767.42 501.609 760.285 508.824C740.574 528.804 717.282 544.621 689.826 552.031C654.041 561.688 635.829 552.391 619.449 513.236C604.153 476.662 597.157 436.702 575.919 402.486C566.119 386.696 556.791 369.852 543.743 357.004C508.791 322.566 472.812 288.989 435.444 257.215C420.453 244.478 401.491 235.264 382.919 228.105C361.57 219.891 340.055 226.801 320.76 237.457C293.526 252.469 266.153 267.482 240.362 284.771C207.631 306.693 170.708 314.491 133.285 321.955C99.4707 328.699 65.6846 335.636 31.954 342.823C22.0986 344.932 12.493 348.262 2.77637 351.037" stroke="#8C949A" stroke-linecap="round" stroke-linejoin="round"/>
<path d="M1082.71 1.38751C1095.2 36.5468 1106.59 72.15 1120.55 106.699C1130.71 131.785 1135.87 156.399 1130.02 183.178C1124.55 208.153 1085.02 245.199 1052.15 244.838C1022.77 244.505 995.927 236.597 968.86 227.55C930.326 214.674 894.042 197.275 858.923 176.684C837.741 164.252 814.06 159.535 792.544 178.96C778.081 192.03 770.252 208.43 769.169 227.55C768.225 244.144 768.53 260.85 769.058 277.472C770.03 307.72 762.062 335.248 743.822 359.224C728.304 379.62 711.841 399.35 695.295 418.914C681.803 434.87 656.484 434.676 642.658 418.969C630.971 405.677 619.033 392.524 608.012 378.677C585.219 350.011 556.791 328.06 527.669 306.249C491.384 279.082 457.237 249.029 421.869 220.64C386.167 192.002 350.41 193.084 312.21 216.339C279.617 236.18 247.025 256.105 213.544 274.392C191.862 286.241 167.654 291.264 142.946 294.316C104.44 299.089 66.1291 305.278 27.7067 310.717C18.9618 311.965 10.1335 312.604 1.33301 313.547" stroke="#8C949A" stroke-linecap="round" stroke-linejoin="round"/>
<path d="M1138.23 1.38751C1141.98 28.971 1155.31 52.7805 1168.94 76.2015C1182.07 98.79 1192.12 122.35 1193.51 148.463C1195.34 182.512 1181.99 212.038 1160.17 237.013C1136.9 263.653 1110.08 286.463 1077.16 301.115C1051.31 312.604 1025.47 309.052 999.397 302.503C980.019 297.647 960.752 291.236 941.069 289.016C906.117 285.076 891.959 309.246 885.573 335.747C877.661 368.603 883.88 400.432 897.178 429.903C918.11 476.273 912.836 521.284 894.874 565.906C887.905 583.194 877.384 599.622 865.863 614.413C838.101 650.099 842.487 667.249 862.198 701.936C873.58 721.999 888.183 740.259 899.177 760.489C912.03 784.159 913.196 810.439 909.06 836.607C903.646 870.934 897.872 905.233 890.987 939.254C883.241 977.494 871.443 1014.54 835.408 1035.99C818.834 1045.84 799.984 1052.56 781.411 1058.3C754.815 1066.54 737.325 1083.14 727.387 1108.56" stroke="#8C949A" stroke-linecap="round" stroke-linejoin="round"/>
<path d="M1046.62 1.38751C1059.11 35.6033 1071.16 70.0133 1084.26 104.007C1091.82 123.543 1092.34 143.69 1090.68 163.697C1088.73 186.702 1062.64 204.795 1043.87 205.794C981.046 209.152 931.103 181.79 885.712 142.774C871.054 130.175 855.146 119.575 836.907 114.108C813.976 107.226 793.488 118.187 774.721 129.315C738.158 151.016 715.477 184.676 699.569 223.36C693.267 238.706 687.465 254.301 679.997 269.064C663.368 301.948 647.377 308.497 609.371 301.088C552.82 290.043 506.014 261.239 465.065 221.945C441.912 199.717 420.535 175.741 390.247 161.894C375.256 155.039 362.402 153.208 348.382 162.282C326.728 176.296 304.352 189.283 283.309 204.157C257.185 222.638 230.062 239.427 199.718 249.251C182.561 254.801 163.85 257.076 145.721 257.714C109.687 258.963 73.5406 257.853 37.478 258.214C25.4294 258.325 13.4086 259.934 1.3877 260.85" stroke="#8C949A" stroke-linecap="round" stroke-linejoin="round"/>
<path d="M1.3877 888C17.1286 883.837 33.6469 881.506 48.3884 875.068C69.9594 865.661 91.4748 855.116 110.741 841.768C139.891 821.566 168.653 801.392 201.134 786.407C251.022 763.403 295.469 731.49 338.721 697.912C366.344 676.462 394.689 655.899 421.84 633.893C445.715 614.551 472.311 601.009 501.045 590.936C510.595 587.578 519.451 582.361 528.89 578.643C556.235 567.931 564.564 545.315 566.257 518.897C570.394 454.906 546.546 401.293 505.403 353.646C480.501 324.786 455.349 296.425 424.811 273.226C382.085 240.759 347.244 242.896 302.714 268.009C278.839 281.496 256.685 298.007 233.088 312.021C202.8 330.003 168.764 337.939 134.589 343.795C88.9207 351.62 45.1125 365.606 1.3877 380.175" stroke="#8C949A" stroke-linecap="round" stroke-linejoin="round"/>
<path d="M698.209 1107.22C706.538 1061.24 738.908 1038.63 780.217 1028.64C834.631 1015.48 865.141 982.572 874.58 928.265C880.41 894.715 886.545 861.193 885.49 826.978C884.879 807.164 879.966 787.656 868.639 771.7C838.489 729.214 801.927 692.917 755.01 669.025C722.167 652.291 686.993 642.523 649.626 643.883C608.899 645.354 568.062 646.214 527.502 649.738C491.744 652.846 459.541 667.193 427.143 683.26C367.816 712.675 314.041 750.554 258.046 785.131C236.586 798.367 213.266 808.579 191.695 821.65C173.844 832.472 156.493 844.46 140.363 857.669C105.522 886.224 65.0455 901.93 22.209 912.975C15.2408 914.779 8.32815 916.666 1.3877 918.525" stroke="#8C949A" stroke-linecap="round" stroke-linejoin="round"/>
<path d="M649.626 1108.61C649.126 1070.84 657.705 1035.21 689.048 1012.24C710.73 996.336 736.659 984.82 762.284 975.995C805.675 961.038 827.968 930.957 830.55 881.09C832.882 835.969 812.699 804.195 778.719 778.387C737.714 747.224 692.018 731.212 639.91 732.239C605.513 732.905 571.31 732.933 538.662 745.254C528.057 749.25 517.896 754.661 508.124 760.461C486.165 773.503 464.455 787.018 442.828 800.615C419.009 815.6 391.608 819.485 365.012 825.34C318.678 835.552 276.674 855.754 244.998 890.026C208.63 929.347 163.628 946.525 113.851 957.569C87.172 963.508 61.8255 973.969 46.2233 997.89C39.4772 1008.24 35.5628 1021.37 33.7583 1033.74C31.0931 1051.97 31.6206 1070.68 30.4546 1089.16C30.0382 1095.68 28.6779 1102.12 27.7617 1108.58" stroke="#8C949A" stroke-linecap="round" stroke-linejoin="round"/>
<path d="M674.612 1108.61C676 1070.01 693.795 1040.99 727.526 1022.89C744.627 1013.74 763.089 1006.66 781.578 1000.61C836.408 982.655 849.817 953.24 857.618 900.46C860.116 883.588 859.867 866.272 860.588 849.15C861.699 823.037 853.731 799.228 836.769 779.997C800.928 739.399 758.258 708.374 703.734 698.134C667.477 691.308 630.776 691.53 594.103 696.442C577.029 698.717 559.456 698.467 542.855 702.519C522.033 707.597 501.378 714.507 481.806 723.22C449.852 737.401 418.954 754.162 384.473 761.654C340.693 771.145 303.992 795.731 265.07 815.767C228.896 834.359 196.998 858.946 165.072 883.726C134.589 907.425 98.0549 918.969 62.5753 932.733C42.0038 940.725 22.6538 951.853 2.77637 961.565" stroke="#8C949A" stroke-linecap="round" stroke-linejoin="round"/>
<path d="M1167.38 2.77502C1173.85 14.7908 1180.65 26.6678 1186.76 38.8778C1198.53 62.4098 1213.91 84.0825 1219.02 110.945C1227.85 157.287 1219.02 199.994 1189.15 235.487C1148.15 284.16 1099.26 324.786 1046.62 360.722C1043.01 363.192 1039.49 365.967 1035.49 367.577C1012.06 376.956 1005.42 396.242 1005.03 419.025C1004.56 446.692 993.151 470.834 979.77 493.811C958.643 530.053 942.985 568.542 928.688 607.725C923.83 621.045 919.221 634.476 914.807 647.962C907.756 669.58 913.586 689.282 922.886 709.096C935.573 736.152 945.317 764.624 940.792 794.982C936.961 820.679 930.465 846.014 924.385 871.322C914.585 912.115 905.313 953.101 893.625 993.339C881.216 1036.02 856.619 1068.68 812.227 1084.08C798.235 1088.94 786.159 1099.34 773.194 1107.2" stroke="#8C949A" stroke-linecap="round" stroke-linejoin="round"/>
<path d="M1.3877 857.475C33.9523 850.954 64.7957 839.576 91.447 819.763C129.897 791.18 173.511 772.976 216.542 753.385C260.822 733.238 298.106 702.88 334.418 671.383C371.536 639.193 407.321 605.477 444.383 573.232C456.598 562.603 470.562 553.696 484.554 545.426C521.644 523.476 533.11 483.238 520.2 442.696C500.573 381.146 464.316 330.031 413.484 290.209C384.223 267.288 351.02 265.789 318.039 281.94C300.577 290.487 283.864 301.004 268.068 312.382C227.98 341.269 182.284 354.922 134.644 363.386C100.636 369.436 68.7378 381.202 37.478 395.382C25.596 400.765 13.4363 405.594 1.41546 410.7" stroke="#8C949A" stroke-linecap="round" stroke-linejoin="round"/>
<path d="M627.417 1108.61C629.277 1090.58 630.582 1072.45 633.08 1054.53C638.438 1016.21 663.035 992.701 695.405 975.385C716.782 963.98 737.798 951.936 759.313 940.808C798.735 920.44 799.568 864.968 778.691 838.05C745.793 795.648 703.262 770.673 649.654 762.82C589.772 754.051 538.718 770.812 494.16 810.328C466.148 835.192 432.779 850.76 396.855 856.781C338.111 866.66 294.275 897.657 259.795 943.667C239.89 970.223 212.517 981.545 181.812 987.817C164.294 991.397 146.332 993.173 129.148 997.835C91.836 1007.96 80.065 1029.69 75.2345 1060.08C72.7081 1076.01 73.0968 1092.41 72.1807 1108.58" stroke="#8C949A" stroke-linecap="round" stroke-linejoin="round"/>
<path d="M1411.69 2.77502C1403.83 18.5093 1395.09 33.855 1388.26 50.0333C1372.82 86.6078 1361.13 124.625 1355.33 163.808C1352.11 185.537 1352.31 208.458 1355.36 230.242C1359.36 258.575 1381.68 270.923 1407.55 274.392C1445.31 279.443 1483.31 283.244 1521.35 285.52C1561.94 287.962 1598.55 274.087 1632.34 252.47C1658.91 235.487 1685.45 217.199 1717.12 212.926C1741.22 209.679 1766.29 210.317 1790.55 212.732C1831.95 216.811 1872.12 230.436 1914.15 230.242C1945.49 230.075 1973.86 219.003 1998.52 200.771C2015.51 188.228 2030.5 156.649 2019.28 126.401C2011.48 105.339 1999.91 85.692 1990.58 65.1848C1981.83 45.954 1973.89 26.3625 1965.43 6.99302C1964.7 5.32802 1962.73 4.19027 1961.34 2.80277" stroke="#8C949A" stroke-linecap="round" stroke-linejoin="round"/>
<path d="M1.38811 818.625C31.3431 810.994 57.5502 795.343 85.0067 781.829C117.877 765.65 152.745 753.135 187.503 741.23C231.478 726.162 269.817 701.714 302.16 669.719C352.853 619.602 401.269 567.099 449.519 514.568C478.669 482.822 480.418 446.553 465.649 406.316C453.461 373.127 435.638 345.044 410.93 320.457C396.577 306.138 378.56 299.117 359.46 297.619C348.189 296.731 335.474 300.616 325.007 305.666C304.908 315.379 285.142 326.285 266.68 338.828C233.227 361.555 195.637 372.96 156.771 379.842C110.548 388.028 68.6827 405.816 29.1222 430.153C19.933 435.814 10.6328 441.281 1.36035 446.831" stroke="#8C949A" stroke-linecap="round" stroke-linejoin="round"/>
<path d="M2.77637 781.163C7.85678 778.388 12.8261 775.335 18.0731 772.865C67.6279 749.5 120.348 736.207 173.511 724.164C210.074 715.894 241.556 697.469 270.789 674.408C309.489 643.883 338.083 604.478 367.789 566.017C383.974 545.093 399.215 523.421 415.095 502.275C429.364 483.294 435.638 461.205 438.387 438.395C442.412 404.873 410.486 347.347 380.337 331.64C356.989 319.486 334.252 323.843 312.404 335.858C299.134 343.157 286.419 351.454 273.482 359.335C243.499 377.594 210.518 388.694 176.26 393.606C118.182 401.931 68.4608 426.351 25.0691 464.84C17.2403 471.778 10.2165 479.576 2.80413 486.985" stroke="#8C949A" stroke-linecap="round" stroke-linejoin="round"/>
<path d="M2.77637 733.988C11.5769 730.297 20.1275 725.801 29.2056 723.026C59.466 713.758 90.8368 711.732 122.18 710.539C180.147 708.346 230.812 689.06 273.509 649.378C309.544 615.884 333.753 573.731 359.321 532.661C372.092 512.126 383.946 490.814 393.94 468.836C409.07 435.509 401.825 403.735 381.558 374.736C371.647 360.556 345.801 353.147 329.089 359.585C311.543 366.356 294.386 374.375 277.702 383.089C248.385 398.379 217.014 406.482 184.588 410.534C122.874 418.22 72.4307 445.748 33.3699 493.978C22.7926 507.048 12.9372 520.757 2.77637 534.16" stroke="#8C949A" stroke-linecap="round" stroke-linejoin="round"/>
<path d="M607.984 1108.61C607.984 1089.66 607.29 1070.65 608.122 1051.73C609.566 1019.17 621.504 991.619 648.155 971.139C671.641 953.102 694.406 934.121 717.67 915.778C736.077 901.237 737.714 871.211 724.306 852.119C703.29 822.205 677.277 799.589 638.605 793.123C601.654 786.935 568.867 793.567 538.662 814.601C529.279 821.15 520.562 828.837 512.261 836.746C482.972 864.718 446.299 876.428 408.099 885.336C377.81 892.412 348.716 902.735 326.312 925.601C315.319 936.84 304.047 948.44 295.969 961.732C271.177 1002.47 234.837 1024 188.836 1032.63C173.622 1035.49 157.576 1039.96 144.722 1048.12C123.54 1061.58 115.461 1083.53 116.6 1108.61" stroke="#8C949A" stroke-linecap="round" stroke-linejoin="round"/>
<path d="M824.526 1.38751C833.16 28.749 824.109 49.4783 800.956 65.268C783.66 77.0618 767.475 90.6593 749.402 101.038C702.818 127.761 664.645 162.754 635.495 207.986C626.279 222.278 613.619 234.46 596.823 239.927C564.453 250.472 534.998 243.59 508.013 223.471C477.67 200.827 456.709 170.468 437.221 138.806C427.948 123.71 418.648 109.28 401.297 101.038C374.285 88.1895 352.464 97.2638 333.336 115.44C312.959 134.81 294.747 156.427 274.675 176.129C253.354 197.053 228.063 211.205 198.525 218.087C171.651 224.359 145.583 220.474 119.348 215.09C88.1715 208.708 57.2449 200.466 24.9579 202.658C17.0735 203.186 9.21694 204.462 1.36035 205.378" stroke="#8C949A" stroke-linecap="round" stroke-linejoin="round"/>
<path d="M1453.33 2.77501C1445.92 14.3468 1438.31 25.7798 1431.15 37.4903C1413.1 67.0163 1402.22 99.5948 1396.97 133.283C1392.53 161.838 1395.97 191.087 1414.94 214.674C1422.71 224.359 1434.9 231.712 1446.53 236.929C1498.94 260.461 1552.02 264.236 1604.55 237.096C1619.46 229.382 1633.42 219.863 1647.64 210.872C1673.09 194.777 1701.69 186.535 1730.95 186.591C1769.82 186.674 1808.65 192.641 1847.55 193.889C1878.36 194.888 1908.6 189.644 1933.5 169.164C1953.27 152.93 1957.96 132.451 1949.02 108.17C1940.44 84.8595 1932.39 61.272 1925.59 37.3793C1922.31 25.8908 1922.48 13.431 1921.09 1.38751" stroke="#8C949A" stroke-linecap="round" stroke-linejoin="round"/>
<path d="M1263.16 1108.61C1259 1078.09 1254.67 1047.59 1250.72 1017.04C1248.11 996.724 1245.7 976.384 1243.84 955.987C1242.37 939.837 1241.2 923.631 1241.15 907.425C1241.12 892.634 1244.06 877.76 1243.37 863.053C1242.7 848.65 1240.31 834.026 1236.54 820.096C1228.38 789.987 1206.03 772.282 1178.38 762.043C1139.01 747.474 1099.03 734.515 1059.06 721.694C1042.07 716.227 1027.19 721.972 1017.69 738.289C1000.23 768.342 983.684 798.95 967.61 829.78C946.4 870.434 935.989 914.806 924.44 958.762C913.335 1001 902.453 1043.32 878.827 1080.97C873.497 1089.49 870.332 1099.37 866.168 1108.61" stroke="#8C949A" stroke-linecap="round" stroke-linejoin="round"/>
<path d="M2219.56 871.35C2188.16 882.422 2157.37 895.687 2123.78 899.045C2092.8 902.125 2061.76 907.175 2030.78 906.842C1983.14 906.343 1939.58 917.776 1897.32 938.977C1871.15 952.103 1842.49 958.263 1812.85 960.4C1761.51 964.118 1713.18 978.465 1668.43 1004.49C1635.23 1023.81 1600.83 1040.9 1564.29 1052.95C1532.4 1063.46 1499.14 1067.4 1465.85 1071.48C1433.76 1075.4 1401.97 1081.81 1378.37 1107.25" stroke="#8C949A" stroke-linecap="round" stroke-linejoin="round"/>
<path d="M582.998 1108.61C581.138 1079 577.723 1049.39 577.862 1019.81C578.028 987.262 588.134 958.485 617.506 939.06C629.693 930.985 641.436 921.161 650.709 909.95C676.222 879.12 659.648 849.566 630.054 836.968C604.763 826.173 580.999 832.777 560.899 850.676C544.381 865.384 529.834 881.756 509.679 892.634C486.692 905.066 461.817 908.591 437.193 912.614C390.247 920.273 351.77 939.587 327.534 982.322C319.566 996.391 310.627 1009.93 302.659 1024C289.778 1046.76 270.289 1061.55 247.135 1072.65C227.758 1081.94 207.269 1089.83 192.944 1107.2" stroke="#8C949A" stroke-linecap="round" stroke-linejoin="round"/>
<path d="M1507.47 1.38751C1497.28 14.3468 1487.2 27.3615 1476.9 40.2098C1455.63 66.711 1440.39 95.3213 1437.67 130.397C1435.17 162.865 1453.94 199.079 1486.45 212.787C1532.87 232.351 1572.96 220.613 1611.55 194.195C1632.37 179.931 1654.13 168.276 1679.62 165.14C1691.64 163.669 1703.66 161.394 1715.71 161.144C1744.86 160.562 1774.03 161.894 1803.13 160.589C1819.43 159.868 1835.94 156.843 1851.63 152.32C1879.22 144.356 1890.27 110.834 1886.55 87.4125C1883.56 68.5703 1881.7 49.506 1879.5 30.5528C1878.39 20.868 1877.61 11.1278 1876.7 1.41526" stroke="#8C949A" stroke-linecap="round" stroke-linejoin="round"/>
<path d="M1238.18 1108.61C1234.76 1066.6 1229.68 1024.92 1220.41 983.682C1213.91 954.85 1209.17 925.574 1205.06 896.297C1197.73 844.155 1167.75 814.851 1117.55 801.559C1076.77 790.736 1041.01 798.451 1010.97 826.034C990.514 844.793 976.05 869.019 964.556 894.882C942.736 944.055 932.269 996.697 916.168 1047.59C909.727 1067.96 903.231 1088.3 896.734 1108.64" stroke="#8C949A" stroke-linecap="round" stroke-linejoin="round"/>
<path d="M2218.17 908.812C2173.75 917.609 2129.47 927.266 2084.86 934.814C2061.62 938.727 2037.69 938.616 2014.12 940.78C1980 943.944 1947.38 953.185 1915.54 965.645C1888.3 976.301 1859.9 983.987 1830.86 984.653C1774.62 985.985 1721.37 996.502 1674.12 1028.28C1636.11 1053.86 1599.05 1080.83 1561.57 1107.2" stroke="#8C949A" stroke-linecap="round" stroke-linejoin="round"/>
<path d="M1215.97 1108.61C1215.55 1045.98 1201.03 986.068 1178.07 928.404C1165.58 897.019 1143.98 872.654 1110.56 860.028C1058.42 840.325 1009.47 865.522 984.267 906.093C957.06 949.966 945.484 999.721 932.852 1048.95C927.771 1068.74 923.524 1088.72 918.888 1108.58" stroke="#8C949A" stroke-linecap="round" stroke-linejoin="round"/>
<path d="M2219.56 946.275C2214.48 947.191 2209.4 948.856 2204.29 948.939C2155.51 949.772 2107.56 957.236 2059.93 967.088C1999.32 979.603 1938.83 992.784 1878 1004.13C1858.6 1007.74 1838.25 1005.91 1818.4 1007.44C1782 1010.27 1745.8 1013.4 1712.76 1032.11C1680.39 1050.42 1652.16 1072.26 1636.53 1107.23" stroke="#8C949A" stroke-linecap="round" stroke-linejoin="round"/>
<path d="M1579.65 1.38751C1573.34 29.0265 1562.46 53.7795 1541.06 73.8428C1527.98 86.1083 1516.68 100.622 1506.41 115.412C1499.75 125.014 1503.91 144.272 1511.63 152.625C1518.27 159.785 1540.95 164.558 1550.39 159.368C1562.41 152.792 1574.32 145.632 1585.06 137.196C1608.96 118.354 1636.14 117.771 1664.32 120.713C1669.4 121.24 1674.51 121.684 1679.59 122.1C1691.17 123.044 1702.74 124.903 1714.29 124.681C1742.8 124.154 1771.56 124.736 1797.63 109.696C1812.65 101.01 1822.95 77.811 1820.01 61.0223C1817.15 44.7053 1811.6 29.6925 1801.49 16.8443C1796.94 11.0723 1789.72 7.40926 1783.7 2.77501" stroke="#8C949A" stroke-linecap="round" stroke-linejoin="round"/>
<path d="M2218.17 992.063C2190.63 982.933 2162.17 980.297 2133.52 982.572C2105.01 984.82 2077.97 993.617 2051.57 1004.49C2033.69 1011.85 2015.81 1019.4 1997.38 1025.06C1984.47 1029.03 1970.67 1031.72 1957.21 1031.99C1916.51 1032.88 1875.78 1032.02 1835.06 1032.41C1804.1 1032.69 1773.56 1035.77 1744.8 1048.89C1718.35 1060.97 1698.8 1078.61 1693.47 1108.64" stroke="#8C949A" stroke-linecap="round" stroke-linejoin="round"/>
<path d="M502.488 1.38751C493.521 21.0623 479.751 32.5785 456.709 33.633C423.811 35.1315 390.719 37.1573 358.21 42.18C332.197 46.2038 312.264 61.1055 299.466 85.8585C288.722 106.643 276.452 127.095 261.96 145.382C242.721 169.664 217.985 184.454 184.616 183.705C161.018 183.178 138.198 180.32 116.738 171.745C79.4817 156.843 41.3369 150.072 1.3877 152.625" stroke="#8C949A" stroke-linecap="round" stroke-linejoin="round"/>
<path d="M1193.76 1108.61C1194.48 1058.44 1183.51 1010.88 1161.83 965.7C1143.26 927.044 1111.83 904.178 1070.13 899.905C1043.23 897.158 1018.94 908.84 1000.7 930.929C973.496 963.813 962.502 1003.47 952.424 1043.46C947.15 1064.43 943.902 1085.97 939.737 1107.23" stroke="#8C949A" stroke-linecap="round" stroke-linejoin="round"/>
<path d="M560.788 1108.61C556.485 1064.82 550.905 1021.28 535.803 979.575C528.029 958.097 511.539 946.83 489.968 943.75C468.258 940.642 446.66 941.419 424.672 945.776C397.244 951.215 376.728 965.284 362.625 988.094C351.797 1005.6 343.719 1024.86 334.557 1043.4C323.841 1065.1 313.264 1086.86 302.604 1108.61" stroke="#8C949A" stroke-linecap="round" stroke-linejoin="round"/>
<path d="M1177.1 1108.61C1176.18 1103.06 1174.52 1097.51 1174.44 1091.96C1173.88 1055.14 1165.41 1020.37 1147.92 987.9C1134.29 962.592 1115.14 942.973 1086.82 935.369C1049.73 925.435 1020.61 937.006 997.926 971.139C979.02 999.583 970.664 1031.66 963.474 1064.21C960.337 1078.36 958.699 1092.85 956.395 1107.2" stroke="#8C949A" stroke-linecap="round" stroke-linejoin="round"/>
<path d="M1157.67 1108.61C1154.81 1068.93 1150.53 1030.25 1126.21 995.892C1110.47 973.636 1076.96 953.434 1046.56 962.814C1032.35 967.198 1020.5 974.968 1012.08 986.651C991.874 1014.73 981.547 1046.79 977.243 1080.89C976.077 1090.1 975.356 1099.4 974.439 1108.64" stroke="#8C949A" stroke-linecap="round" stroke-linejoin="round"/>
<path d="M272.065 1.38751C263.737 28.6658 256.158 56.2215 246.858 83.1668C237.419 110.528 220.928 131.48 190.168 137.474C171.151 141.164 153.522 136.169 136.032 130.314C108.132 120.99 80.5644 110.695 52.6638 101.399C38.0888 96.5423 23.0697 93.0458 8.32817 88.689C6.24603 88.0785 4.60809 86.025 2.74805 84.6375" stroke="#8C949A" stroke-linecap="round" stroke-linejoin="round"/>
<path d="M538.579 1108.61C532.111 1083.64 527.086 1058.16 518.785 1033.8C508.124 1002.55 488.275 979.714 452.517 976.856C416.733 973.997 389.248 998.362 377.977 1029.66C368.954 1054.81 363.68 1081.31 356.739 1107.23" stroke="#8C949A" stroke-linecap="round" stroke-linejoin="round"/>
<path d="M2112.67 1.38751C2116.84 32.3843 2120.61 63.4365 2125.28 94.3223C2129.83 124.459 2134.58 154.623 2140.74 184.454C2144.16 200.993 2149.15 217.56 2156.09 232.906C2164.53 251.582 2180.91 259.379 2201.54 258.103C2207.54 257.742 2213.56 258.047 2219.58 258.047" stroke="#8C949A" stroke-linecap="round" stroke-linejoin="round"/>
<path d="M1132.68 1108.61C1134.01 1080.14 1129.96 1053.08 1114.83 1028.03C1105.95 1013.29 1095.12 1001.3 1078.49 996.392C1053.56 989.01 1031.74 1000.5 1017.25 1025.25C1004.81 1046.51 998.287 1069.04 996.538 1093.35C996.177 1098.48 994.761 1103.53 993.845 1108.61" stroke="#8C949A" stroke-linecap="round" stroke-linejoin="round"/>
<path d="M49.9717 1.38751C51.7484 20.535 58.328 37.6845 73.6803 49.8113C93.641 65.601 115.989 76.2848 141.53 80.7525C160.686 84.0825 178.537 83.2778 189.614 66.2393C195.86 56.6378 197.692 43.623 199.552 31.857C201.135 21.9225 199.885 11.5718 199.885 1.38751" stroke="#8C949A" stroke-linecap="round" stroke-linejoin="round"/>
<path d="M2218.17 1047.56C2144.71 983.876 2044.02 1030.25 2021.06 1108.61" stroke="#8C949A" stroke-linecap="round" stroke-linejoin="round"/>
<path d="M2165.42 1.38751C2165.42 33.3 2163.89 65.3235 2165.95 97.0973C2167.39 119.464 2172.47 141.886 2178.27 163.642C2183.97 184.982 2197.99 200.522 2219.56 208.153" stroke="#8C949A" stroke-linecap="round" stroke-linejoin="round"/>
<path d="M1107.7 1108.61C1108.53 1088.99 1106.53 1069.93 1095.12 1053.17C1091.07 1047.23 1086.6 1041.26 1081.21 1036.6C1066.08 1023.53 1051.2 1028.89 1038.76 1043.79C1023.63 1061.91 1018.16 1084.75 1018.86 1108.61" stroke="#8C949A" stroke-linecap="round" stroke-linejoin="round"/>
<path d="M632.969 1.38751C636.828 24.0315 649.82 40.7925 667.727 54.0293C683.773 65.9063 702.956 64.5743 718.697 57.5258C741.989 47.064 762.533 31.191 763.449 1.38751" stroke="#8C949A" stroke-linecap="round" stroke-linejoin="round"/>
<path d="M502.489 1108.61C498.38 1082.53 489.385 1058.52 467.564 1042.29C454.239 1032.38 444.883 1032.38 430.169 1044.59C411.957 1059.69 408.876 1080.59 405.322 1101.65C405.017 1103.53 404.406 1105.34 403.962 1107.2" stroke="#8C949A" stroke-linecap="round" stroke-linejoin="round"/>
<path d="M2198.74 1108.61C2193.49 1073.98 2164.95 1052.64 2133.49 1054.69C2110.42 1056.22 2092.77 1068.1 2080.83 1087.86C2076.89 1094.38 2074.25 1101.67 2071 1108.61" stroke="#8C949A" stroke-linecap="round" stroke-linejoin="round"/>
<path d="M1916.95 1107.22C1891.58 1076.37 1835.97 1064.63 1794.66 1083.3C1783.14 1088.52 1777.06 1096.57 1772.59 1107.22" stroke="#8C949A" stroke-linecap="round" stroke-linejoin="round"/>
<path d="M2218.86 29.1375C2217.7 34.2158 2216.17 39.2663 2215.45 44.4C2211.17 75.147 2203.43 106.088 2219.44 136.031C2219.97 137.002 2219.08 138.75 2218.83 140.138" stroke="#8C949A" stroke-linecap="round" stroke-linejoin="round"/>
<path d="M2072.42 654.9C2047.68 661.671 2040.63 681.373 2037.91 703.49C2036.69 713.508 2038.66 723.914 2037.49 733.96C2035.22 753.551 2048.18 764.068 2061.65 772.255C2070.45 777.61 2083.27 781.024 2093.1 779.137C2132.11 771.616 2144.6 740.786 2139.32 711.732C2135.41 690.115 2123.17 674.158 2106.65 662.476C2098.15 656.482 2084.91 657.203 2073.81 654.9" stroke="#8C949A" stroke-linecap="round" stroke-linejoin="round"/>
<path d="M1753.16 438.45C1714.76 449.494 1698.16 479.187 1691.06 514.846C1684.28 548.728 1682 583.527 1675.06 617.382C1664.71 667.887 1630.76 694 1581.04 702.186C1538.87 709.123 1496.61 716.005 1454.75 724.58C1419.21 731.851 1391.67 750.36 1387.12 789.571C1384.68 810.55 1386.15 832.084 1386.92 853.34C1387.29 862.637 1390.23 871.877 1392.26 881.09C1401.61 923.825 1431.54 945.054 1471.38 954.489C1530.73 968.558 1587.45 960.705 1639.11 927.988C1682.34 900.626 1727.84 878.038 1773.7 855.671C1811.49 837.245 1836.47 807.525 1840.83 763.18C1842.97 741.286 1846.94 719.446 1851.91 697.996C1858.43 669.968 1873.59 645.743 1890.75 623.182C1904.74 604.756 1905.79 576.034 1889.41 556.193C1863.68 525.002 1843.13 489.676 1812.96 461.899C1796.11 446.359 1777.73 436.951 1754.49 438.505" stroke="#8C949A" stroke-linecap="round" stroke-linejoin="round"/>
<path d="M306.768 413.475C276.341 422.161 245.47 427.794 213.793 430.486C182.367 433.178 150.996 436.729 121.985 452.02C95.4725 465.978 74.5123 485.653 60.1317 510.85C41.8644 542.845 25.9569 576.284 19.3218 613.247C16.2125 630.591 20.0159 641.885 34.7296 650.654C64.6291 668.47 97.2492 677.294 131.84 679.93C205.631 685.564 255.991 649.794 292.887 589.687C317.65 549.339 334.529 505.633 348.271 460.594C354.24 441.031 345.967 420.579 331.587 415.223C324.535 412.587 315.985 413.919 308.128 413.447" stroke="#8C949A" stroke-linecap="round" stroke-linejoin="round"/>
<path d="M1717.07 721.5C1695.77 727.05 1674.76 734.57 1653.13 737.512C1636.45 739.787 1618.99 735.736 1601.86 735.486C1572.26 735.042 1542.64 735.125 1513.02 735.458C1492.84 735.68 1473.35 739.732 1454.69 747.807C1428.29 759.24 1413.16 777.472 1409.66 807.442C1406.86 831.335 1409.05 854.312 1417.85 875.263C1434.31 914.446 1467.43 930.707 1508.83 935.564C1565.77 942.224 1610.21 918.775 1652.08 884.115C1682.84 858.641 1715.46 835.386 1747.72 811.799C1768.04 796.952 1774.76 776.861 1770.93 753.44C1767.62 733.322 1753.46 718.198 1733.72 721.361C1728.76 722.166 1723.56 721.472 1718.48 721.472" stroke="#8C949A" stroke-linecap="round" stroke-linejoin="round"/>
<path d="M528.862 111C514.62 116.606 512.955 129.565 514.093 141.47C515.287 154.29 521.283 166.139 534.442 172.022C549.545 178.766 562.676 169.469 563.786 152.625C564.73 138.362 561.565 127.178 549.989 117.577C543.631 112.304 537.801 110.362 530.278 111" stroke="#8C949A" stroke-linecap="round" stroke-linejoin="round"/>
<path d="M195.721 455.1C186.004 456.959 176.315 459.04 166.571 460.622C122.263 467.726 95.8059 495.199 80.5092 535.575C73.7353 553.501 69.2101 571.705 72.1806 591.075C74.9846 609.473 82.508 624.958 98.5543 635.475C154.55 672.16 213.738 655.927 254.02 609.112C277.035 582.361 287.418 549.811 290.777 516.067C293.72 486.457 284.586 469.613 251.189 462.315C233.477 458.43 215.154 457.403 197.109 455.1" stroke="#8C949A" stroke-linecap="round" stroke-linejoin="round"/>
<path d="M1503.3 760.35C1494.06 762.653 1484.56 764.291 1475.6 767.426C1451.53 775.807 1440.03 795.815 1437.67 821.372C1432.79 874.347 1480.15 908.757 1524.15 907.925C1562.77 907.203 1592.25 892.079 1614.24 861.554C1633.64 834.665 1631.76 802.613 1600.63 780.941C1581.51 767.621 1560.69 761.571 1538 760.433C1526.93 759.878 1515.79 760.35 1504.69 760.35" stroke="#8C949A" stroke-linecap="round" stroke-linejoin="round"/>
<path d="M959.17 8.32497C940.875 12.7372 924.163 20.3407 909.171 31.857C886.573 49.2007 881.409 67.8487 895.54 91.4362C912.669 120.102 934.462 144.494 966.111 158.175C982.129 165.112 998.897 167.749 1016.08 166.306C1031.43 165.001 1049.17 150.766 1049.42 126.235C1049.7 98.2905 1038.68 73.7872 1025.74 49.9777C1022.58 44.1502 1018.89 38.4337 1014.64 33.3555C1000.62 16.6222 984.073 4.85622 960.586 8.29722" stroke="#8C949A" stroke-linecap="round" stroke-linejoin="round"/>
<path d="M1511.63 813.075C1500 816.988 1496.44 826.645 1499.8 836.441C1501.66 841.852 1509.69 846.736 1515.93 848.734C1525.43 851.786 1532.65 846.764 1538.2 838.161C1544.22 828.837 1536.03 817.127 1524.07 813.214C1520.74 812.132 1516.71 813.047 1513.02 813.047" stroke="#8C949A" stroke-linecap="round" stroke-linejoin="round"/>
<path d="M187.392 485.625C175.815 488.872 163.683 490.786 152.801 495.587C122.54 508.963 112.074 536.602 108.854 566.156C106.05 591.797 131.924 619.602 158.242 624.375C192.722 630.591 228.674 608.752 242.943 573.038C250.356 554.473 253.354 537.046 243.498 517.232C234.17 498.501 218.929 492.674 201.273 488.4C197.136 487.401 192.944 486.541 188.78 485.625" stroke="#8C949A" stroke-linecap="round" stroke-linejoin="round"/>
<path d="M1389.48 452.325C1365.44 462.703 1358.55 475.191 1366.1 499.417C1372.29 519.258 1381.46 536.713 1403.14 545.759C1419.96 552.752 1433.62 547.702 1444.5 537.823C1455.19 528.138 1460.05 514.207 1456.36 498.029C1451.5 476.662 1436.48 465.839 1418.46 458.152C1409.97 454.545 1400.08 454.156 1390.84 452.297" stroke="#8C949A" stroke-linecap="round" stroke-linejoin="round"/>
<path d="M1283.98 330.225C1274.74 334.387 1264.77 337.468 1256.36 342.934C1237.4 355.228 1235.51 371.905 1250.78 388.389C1257.44 395.548 1265.11 401.931 1272.93 407.842C1300.67 428.821 1314.74 458.541 1327.21 489.704C1333.87 506.382 1341.56 522.865 1350.86 538.183C1365.46 562.298 1387.81 576.95 1415.88 579.364C1426.65 580.308 1439.14 576.478 1448.94 571.289C1494.36 547.285 1504.36 492.451 1471.21 451.048C1457.49 433.927 1438.23 423.77 1418.57 414.946C1382.68 398.795 1350.78 377.899 1326.68 345.737C1317.05 332.889 1301.72 328.56 1285.34 330.225" stroke="#8C949A" stroke-linecap="round" stroke-linejoin="round"/>
</g>
<defs>
<clipPath id="clip0_112_563">
<rect width="2221" height="1110" fill="white"/>
</clipPath>
</defs>
</svg>
