<svg width="261" height="90" viewBox="0 0 261 90" fill="none" xmlns="http://www.w3.org/2000/svg">
<g clip-path="url(#clip0_171_2129)">
<path d="M16.0938 38.6831C16.0938 43.988 20.4142 48.2811 25.753 48.2811C28.0366 48.2811 30.1197 47.4991 31.7707 46.1806L18.2077 32.7036C16.8807 34.3441 16.0938 36.4293 16.0938 38.6831Z" fill="#0084C8"/>
<path d="M77.1968 12.2505H23.9475C22.9446 12.2505 21.9416 11.9899 21.0621 11.4992L0.555511 0.0460809C0.246909 -0.122573 -0.0925532 0.184071 0.0308876 0.490715L4.10443 11.0853C4.3976 11.8519 4.86051 12.5418 5.43142 13.1244L50.5644 57.9711L95.6975 13.1244C96.2838 12.5418 96.7313 11.8519 97.0244 11.0853L101.098 0.490715C101.221 0.168738 100.882 -0.122573 100.573 0.0460809L80.0668 11.4992C79.1873 11.9899 78.1997 12.2505 77.1813 12.2505H77.1968Z" fill="#20201C"/>
<path d="M69.3584 46.1652C71.0094 47.4838 73.1079 48.2657 75.3761 48.2657C80.7149 48.2657 85.0354 43.9727 85.0354 38.6678C85.0354 36.3986 84.2484 34.3288 82.9215 32.6882L69.3584 46.1652Z" fill="#0084C8"/>
<path d="M235.139 69.7001H236.389V72.9506H237.176V69.7001H238.426V69.0102H235.139V69.7001Z" fill="#20201C"/>
<path d="M242.114 69.0102L240.663 71.31L239.213 69.0102H238.673V72.9506H239.444V70.6047L240.401 72.138H240.926L241.898 70.6047V72.9506H242.654V69.0102H242.114Z" fill="#20201C"/>
<path d="M132.405 79.8652C131.788 79.4052 131.109 79.0219 130.369 78.7153C129.628 78.4086 128.887 78.1327 128.147 77.8874C127.406 77.642 126.727 77.3507 126.11 77.0288C125.477 76.7068 124.984 76.3081 124.613 75.8328C124.243 75.3575 124.058 74.7136 124.058 73.9316C124.058 72.9351 124.428 72.1531 125.153 71.5858C125.879 71.0185 126.851 70.7425 128.054 70.7425C129.088 70.7425 129.983 70.9419 130.754 71.3405C131.526 71.7391 132.22 72.3218 132.868 73.0884L134.381 71.5858C133.671 70.6966 132.791 70.0066 131.727 69.4853C130.662 68.964 129.458 68.7034 128.116 68.7034C126.912 68.7034 125.832 68.918 124.876 69.3473C123.934 69.7766 123.178 70.3899 122.638 71.2025C122.098 71.9998 121.82 72.9657 121.82 74.085C121.82 75.1429 122.006 76.0168 122.376 76.7068C122.746 77.3814 123.255 77.9487 123.873 78.3933C124.505 78.838 125.184 79.2059 125.909 79.4972C126.65 79.7885 127.391 80.0645 128.131 80.3252C128.872 80.5858 129.551 80.8771 130.168 81.2144C130.785 81.5518 131.279 81.9811 131.665 82.5023C132.051 83.039 132.236 83.7136 132.236 84.5262C132.236 85.5841 131.819 86.4274 131.001 87.0253C130.168 87.6233 129.088 87.9299 127.761 87.9299C126.434 87.9299 125.354 87.6846 124.413 87.2093C123.471 86.734 122.654 85.9981 121.944 85.0168L120.401 86.5194C121.28 87.6233 122.314 88.4819 123.487 89.0952C124.66 89.7085 126.048 90.0151 127.668 90.0151C129.767 90.0151 131.433 89.5245 132.652 88.5279C133.871 87.5313 134.489 86.1514 134.489 84.3575C134.489 83.2536 134.303 82.349 133.918 81.6284C133.532 80.9231 133.038 80.3252 132.421 79.8652H132.405Z" fill="#20201C"/>
<path d="M140.892 80.08H151.431V78.1175H140.892V71.0187H152.218V69.0102H140.892H140.136H138.686V89.7087H140.136H140.892H152.403V87.6848H140.892V80.08Z" fill="#20201C"/>
<path d="M168.975 87.1789C167.941 87.6388 166.753 87.8688 165.426 87.8688C164.253 87.8688 163.173 87.6542 162.186 87.2402C161.198 86.8262 160.334 86.2283 159.609 85.4463C158.884 84.6797 158.313 83.7751 157.912 82.7172C157.51 81.6746 157.31 80.54 157.31 79.3134C157.31 78.0869 157.51 76.9676 157.896 75.925C158.282 74.8824 158.853 73.9932 159.593 73.2112C160.334 72.4446 161.183 71.8467 162.17 71.4174C163.142 71.0034 164.223 70.7887 165.395 70.7887C166.66 70.7887 167.818 71.0187 168.852 71.4634C169.885 71.908 170.765 72.5366 171.49 73.3492L173.002 71.8467C172.061 70.8654 170.95 70.0988 169.685 69.5315C168.419 68.9642 167 68.6882 165.395 68.6882C163.929 68.6882 162.556 68.9642 161.275 69.5008C160.01 70.0375 158.899 70.7887 157.958 71.7547C157.017 72.7206 156.291 73.8398 155.782 75.1431C155.273 76.431 155.011 77.8262 155.011 79.3134C155.011 80.8007 155.273 82.1806 155.782 83.4838C156.291 84.7717 157.032 85.9216 157.973 86.9029C158.915 87.8841 160.041 88.6508 161.322 89.1874C162.602 89.724 163.991 90 165.488 90C167.077 90 168.528 89.7087 169.824 89.1414C171.12 88.5741 172.231 87.7921 173.157 86.8109L171.644 85.2777C170.919 86.0749 170.04 86.7189 168.99 87.1789H168.975Z" fill="#20201C"/>
<path d="M190.207 82.1806C190.207 83.3458 189.96 84.3577 189.466 85.201C188.972 86.0596 188.309 86.7036 187.476 87.1635C186.642 87.6235 185.686 87.8535 184.621 87.8535C183.556 87.8535 182.584 87.6235 181.736 87.1635C180.871 86.7036 180.208 86.0443 179.73 85.1857C179.251 84.3271 179.004 83.3151 179.004 82.1499V69.0102H176.767V82.2725C176.767 83.7291 177.107 85.0477 177.801 86.2283C178.48 87.4088 179.421 88.3288 180.594 88.9881C181.766 89.6627 183.124 90 184.636 90C186.149 90 187.46 89.6627 188.648 88.9881C189.821 88.3134 190.762 87.3935 191.426 86.2436C192.105 85.0783 192.444 83.7751 192.444 82.3032V69.0102H190.238V82.1806H190.207Z" fill="#20201C"/>
<path d="M208.414 79.7274C209.386 79.2521 210.127 78.5928 210.636 77.7342C211.145 76.8756 211.408 75.8637 211.408 74.7291C211.408 73.5945 211.145 72.6439 210.636 71.7853C210.127 70.9267 209.386 70.2521 208.414 69.7615C207.442 69.2708 206.285 69.0255 204.927 69.0255H197.443V89.724H199.65V80.4633H202.474L210.034 89.724H212.873L205.174 80.448C206.408 80.4173 207.488 80.1874 208.383 79.7581L208.414 79.7274ZM199.681 70.942H204.942C206.316 70.942 207.365 71.2947 208.09 72.0153C208.815 72.7206 209.186 73.6405 209.186 74.7598C209.186 75.879 208.815 76.8449 208.09 77.5349C207.365 78.2248 206.316 78.5775 204.942 78.5775H199.681V70.942Z" fill="#20201C"/>
<path d="M229.723 71.0187V69.0102H218.413H217.657H216.207V89.7087H217.657H218.413H229.723V87.6848H218.413V80.08H228.936V78.1175H218.413V71.0187H229.723Z" fill="#20201C"/>
<path d="M259.148 25.7888C257.914 22.9983 256.201 20.5911 253.995 18.5673C251.788 16.5434 249.196 14.9949 246.203 13.891C243.209 12.7871 239.953 12.2504 236.404 12.2504H222.147V50.9642L207.195 12.2504H195.962L180.825 51.0409V12.2504H169.206V54.0613L155.89 40.8296C161.954 39.0664 166.29 33.4702 166.29 26.8313C166.29 18.7819 159.933 12.2504 151.832 12.2504H103.274L93.2749 22.1704L106.684 22.1857V57.971H118.303V22.1857H126.542L131.696 17.0647V22.201V57.971H143.315V41.6882L159.701 57.971H189.991L192.83 49.983H209.942L212.704 57.971H236.528C240.031 57.971 243.271 57.4191 246.233 56.3305C249.196 55.2419 251.788 53.678 253.995 51.6542C256.201 49.6303 257.914 47.2232 259.148 44.4327C260.383 41.6422 261 38.5298 261 35.0801C261 31.6303 260.383 28.5945 259.148 25.7888ZM150.505 31.4923H143.346V22.1857H150.521C153.113 22.1857 155.196 24.2709 155.196 26.8313C155.196 29.3918 153.097 31.477 150.521 31.477L150.505 31.4923ZM196.086 40.8143L201.502 25.5588L206.779 40.8143H196.086ZM247.56 42.1329C246.527 44.0954 245.045 45.5673 243.117 46.5486C241.188 47.5451 238.935 48.0358 236.343 48.0358H233.766V22.1857H236.343C238.935 22.1857 241.188 22.6763 243.086 23.6729C244.984 24.6695 246.465 26.1107 247.53 28.0273C248.594 29.9438 249.119 32.2743 249.119 35.0187C249.119 37.7632 248.594 40.1857 247.56 42.1482V42.1329Z" fill="#20201C"/>
</g>
<defs>
<clipPath id="clip0_171_2129">
<rect width="261" height="90" fill="white"/>
</clipPath>
</defs>
</svg>
