<svg width="167" height="150" viewBox="0 0 167 150" fill="none" xmlns="http://www.w3.org/2000/svg">
<g clip-path="url(#clip0_171_2154)">
<path d="M47.0669 38.9071C47.0669 44.2428 51.3694 48.5607 56.6861 48.5607C58.9603 48.5607 61.0348 47.7742 62.679 46.448L49.1721 32.8929C47.8506 34.543 47.0669 36.6402 47.0669 38.9071Z" fill="#00DBFF"/>
<path d="M107.917 12.3214H54.8881C53.8893 12.3214 52.8905 12.0593 52.0147 11.5658L31.593 0.0463061C31.301 -0.123325 30.9476 0.169674 31.0705 0.493515L35.1272 11.1494C35.4191 11.9205 35.8801 12.6144 36.4487 13.2004L81.3949 58.3068L126.341 13.2004C126.925 12.6144 127.371 11.9205 127.663 11.1494L131.719 0.493515C131.842 0.169674 131.504 -0.123325 131.197 0.0463061L110.775 11.5658C109.899 12.0593 108.916 12.3214 107.902 12.3214H107.917Z" fill="#F1F1F1"/>
<path d="M100.111 46.4326C101.755 47.7588 103.845 48.5453 106.104 48.5453C111.42 48.5453 115.723 44.2274 115.723 38.8918C115.723 36.6094 114.939 34.5276 113.618 32.8776L100.111 46.4326Z" fill="#00DBFF"/>
<path d="M141.246 129.583H142.506V132.852H143.274V129.583H144.534V128.889H141.246V129.583Z" fill="#F1F1F1"/>
<path d="M148.207 128.889L146.763 131.202L145.303 128.889H144.765V132.852H145.533V130.492L146.486 132.035H147.024L147.977 130.492V132.852H148.745V128.889H148.207Z" fill="#F1F1F1"/>
<path d="M38.9535 139.807C38.3388 139.344 37.6627 138.959 36.9251 138.65C36.1875 138.342 35.45 138.064 34.7124 137.817C33.9748 137.571 33.2987 137.278 32.684 136.954C32.054 136.63 31.5623 136.229 31.1935 135.751C30.8247 135.273 30.6403 134.625 30.6403 133.839C30.6403 132.836 31.0091 132.05 31.7313 131.479C32.4535 130.909 33.4216 130.631 34.6202 130.631C35.6497 130.631 36.541 130.832 37.3093 131.233C38.0776 131.634 38.7691 132.22 39.4144 132.991L40.9203 131.479C40.2135 130.585 39.3376 129.891 38.2773 129.367C37.2171 128.842 36.0185 128.58 34.6816 128.58C33.4831 128.58 32.4074 128.796 31.4547 129.228C30.5174 129.66 29.7645 130.277 29.2266 131.094C28.6888 131.896 28.4122 132.867 28.4122 133.993C28.4122 135.057 28.5966 135.936 28.9654 136.63C29.3342 137.308 29.8413 137.879 30.4559 138.326C31.0859 138.773 31.7621 139.144 32.4843 139.437C33.2219 139.73 33.9594 140.007 34.697 140.269C35.4346 140.531 36.1107 140.824 36.7253 141.164C37.34 141.503 37.8317 141.935 38.2159 142.459C38.6 142.999 38.7844 143.677 38.7844 144.495C38.7844 145.559 38.3695 146.407 37.5551 147.008C36.7253 147.61 35.6497 147.918 34.3282 147.918C33.0067 147.918 31.9311 147.671 30.9938 147.193C30.0564 146.715 29.242 145.975 28.5352 144.988L26.9985 146.499C27.8744 147.61 28.9039 148.473 30.0718 149.09C31.2396 149.707 32.6226 150.015 34.236 150.015C36.3258 150.015 37.9854 149.522 39.1993 148.52C40.4132 147.517 41.0279 146.129 41.0279 144.325C41.0279 143.215 40.8435 142.305 40.4593 141.58C40.0752 140.871 39.5835 140.269 38.9688 139.807H38.9535Z" fill="#F1F1F1"/>
<path d="M47.4049 140.023H57.9V138.049H47.4049V130.924H58.6837V128.889H47.4049H46.6519H45.2075V149.707H46.6519H47.4049H58.8527V147.671H47.4049V140.023Z" fill="#F1F1F1"/>
<path d="M75.3561 147.163C74.3266 147.625 73.1434 147.856 71.8219 147.856C70.6541 147.856 69.5784 147.641 68.595 147.224C67.6116 146.808 66.751 146.206 66.0288 145.42C65.3066 144.649 64.7381 143.739 64.3386 142.675C63.939 141.626 63.7393 140.485 63.7393 139.252C63.7393 138.018 63.939 136.892 64.3232 135.844C64.7073 134.795 65.2759 133.9 66.0135 133.114C66.751 132.343 67.5962 131.742 68.5796 131.31C69.5477 130.893 70.6233 130.677 71.7912 130.677C73.0512 130.677 74.2037 130.909 75.2332 131.356C76.2627 131.803 77.1386 132.435 77.8608 133.253L79.3667 131.742C78.4294 130.755 77.323 129.984 76.063 129.413C74.8029 128.842 73.3893 128.565 71.7912 128.565C70.3314 128.565 68.9638 128.842 67.6884 129.382C66.4284 129.922 65.322 130.677 64.3847 131.649C63.4473 132.621 62.7251 133.746 62.218 135.057C61.7109 136.352 61.4497 137.756 61.4497 139.252C61.4497 140.747 61.7109 142.135 62.218 143.446C62.7251 144.741 63.4627 145.898 64.4 146.885C65.3374 147.872 66.4591 148.643 67.7345 149.183C69.0099 149.722 70.3928 150 71.8834 150C73.4661 150 74.9105 149.707 76.2013 149.136C77.492 148.566 78.5984 147.779 79.5204 146.792L78.0145 145.25C77.2923 146.052 76.4164 146.7 75.3715 147.163H75.3561Z" fill="#F1F1F1"/>
<path d="M96.4997 142.135C96.4997 143.307 96.2538 144.325 95.7621 145.173C95.2704 146.037 94.6096 146.684 93.7799 147.147C92.9501 147.61 91.9974 147.841 90.9371 147.841C89.8769 147.841 88.9088 147.61 88.0636 147.147C87.2031 146.684 86.5424 146.021 86.066 145.158C85.5897 144.294 85.3438 143.276 85.3438 142.104V128.889H83.1157V142.228C83.1157 143.693 83.4538 145.019 84.1453 146.206C84.8214 147.394 85.7587 148.319 86.9265 148.982C88.0944 149.661 89.4466 150 90.9525 150C92.4584 150 93.7645 149.661 94.9477 148.982C96.1155 148.304 97.0529 147.378 97.7136 146.222C98.3897 145.05 98.7278 143.739 98.7278 142.259V128.889H96.5304V142.135H96.4997Z" fill="#F1F1F1"/>
<path d="M114.648 139.668C115.616 139.19 116.353 138.527 116.86 137.663C117.367 136.8 117.629 135.782 117.629 134.641C117.629 133.5 117.367 132.543 116.86 131.68C116.353 130.816 115.616 130.138 114.648 129.644C113.679 129.151 112.527 128.904 111.175 128.904H103.722V149.722H105.92V140.408H108.732L116.261 149.722H119.088L111.421 140.393C112.65 140.362 113.726 140.131 114.617 139.699L114.648 139.668ZM105.935 130.832H111.175C112.542 130.832 113.587 131.186 114.309 131.911C115.032 132.621 115.4 133.546 115.4 134.672C115.4 135.797 115.032 136.769 114.309 137.463C113.587 138.157 112.542 138.511 111.175 138.511H105.935V130.832Z" fill="#F1F1F1"/>
<path d="M135.868 130.924V128.889H124.589H123.837H122.392V149.707H123.837H124.589H135.868V147.671H124.589V140.023H135.085V138.049H124.589V130.924H135.868Z" fill="#F1F1F1"/>
<path d="M165.171 85.4169C163.942 82.6103 162.236 80.1892 160.039 78.1536C157.842 76.118 155.26 74.5605 152.279 73.4502C149.298 72.3399 146.056 71.8002 142.522 71.8002H128.323V110.738L113.433 71.8002H102.247L87.1725 110.815V71.8002H75.6018V113.853L62.3407 100.545C68.3796 98.7715 72.6976 93.1428 72.6976 86.4655C72.6976 78.3695 66.3667 71.8002 58.2994 71.8002H0V81.7775L13.3532 81.793V117.786H24.924V81.793H33.1296L38.2619 76.6424V81.8084V117.786H49.8326V101.408L66.1516 117.786H96.3154L99.1428 109.751H116.184L118.934 117.786H142.66C146.148 117.786 149.375 117.23 152.325 116.136C155.276 115.041 157.857 113.468 160.054 111.432C162.252 109.397 163.957 106.975 165.187 104.169C166.416 101.362 167.031 98.2318 167.031 94.762C167.031 91.2923 166.416 88.2389 165.187 85.4169H165.171ZM56.9626 91.1535H49.8326V81.793H56.9779C59.5594 81.793 61.6339 83.8902 61.6339 86.4655C61.6339 89.0408 59.5441 91.1381 56.9779 91.1381L56.9626 91.1535ZM102.37 100.529L107.763 85.1856L113.019 100.529H102.37ZM153.631 101.856C152.602 103.83 151.127 105.31 149.206 106.297C147.285 107.299 145.042 107.793 142.46 107.793H139.894V81.793H142.46C145.042 81.793 147.285 82.2864 149.175 83.2888C151.065 84.2912 152.54 85.7407 153.601 87.6684C154.661 89.596 155.183 91.94 155.183 94.7003C155.183 97.4607 154.661 99.8972 153.631 101.871V101.856Z" fill="#F1F1F1"/>
</g>
<defs>
<clipPath id="clip0_171_2154">
<rect width="167" height="150" fill="white"/>
</clipPath>
</defs>
</svg>
