<svg width="416" height="59" viewBox="0 0 416 59" fill="none" xmlns="http://www.w3.org/2000/svg">
<g clip-path="url(#clip0_1_351)">
<path d="M177.788 39.3697C177.788 44.7688 182.104 49.1381 187.437 49.1381C189.719 49.1381 191.8 48.3422 193.449 47.0003L179.9 33.2841C178.574 34.9537 177.788 37.0759 177.788 39.3697Z" fill="#F1F1F1"/>
<path d="M238.813 12.4678H185.618C184.617 12.4678 183.615 12.2026 182.736 11.7032L162.25 0.0467753C161.958 -0.124872 161.603 0.17161 161.726 0.499301L165.796 11.2819C166.089 12.0621 166.551 12.7643 167.121 13.3573L212.208 59L257.295 13.3573C257.88 12.7643 258.327 12.0621 258.62 11.2819L262.69 0.499301C262.813 0.17161 262.474 -0.124872 262.166 0.0467753L241.68 11.7032C240.801 12.2026 239.815 12.4678 238.798 12.4678H238.813Z" fill="#F1F1F1"/>
<path d="M165.688 26.2465C164.455 23.4065 162.744 20.9567 160.54 18.8969C158.335 16.8371 155.746 15.2611 152.755 14.1376C149.78 13.0297 146.513 12.4679 142.967 12.4679H128.724V51.8688L113.788 12.4679H102.566L87.4451 51.9469V12.4679H75.8382V55.0209L62.5356 41.5544C68.5935 39.7599 72.9249 34.0643 72.9249 27.3076C72.9249 19.1153 66.5742 12.4679 58.4817 12.4679H0V22.5639L13.395 22.5795V59H25.0019V22.5795H33.2331L38.3815 17.3677V22.5951V59H49.9884V42.4282L66.3584 59H96.6166L99.4528 50.8702H116.547L119.306 59H143.106C146.605 59 149.842 58.4383 152.802 57.3304C155.761 56.2225 158.351 54.6308 160.555 52.571C162.759 50.5113 164.47 48.0614 165.703 45.2214C166.936 42.3814 167.553 39.2137 167.553 35.7028C167.553 32.1918 166.936 29.1021 165.703 26.2465H165.688ZM57.1407 32.0513H49.9884V22.5795H57.1561C59.7457 22.5795 61.8266 24.7017 61.8266 27.3076C61.8266 29.9135 59.7303 32.0357 57.1561 32.0357L57.1407 32.0513ZM102.69 41.5388L108.1 26.0125L113.372 41.5388H102.69ZM154.112 42.8807C153.079 44.8781 151.599 46.3761 149.672 47.3748C147.746 48.3891 145.495 48.8884 142.906 48.8884H140.331V22.5795H142.906C145.495 22.5795 147.746 23.0788 149.642 24.0931C151.538 25.1074 153.017 26.5742 154.081 28.5248C155.145 30.4753 155.669 32.8472 155.669 35.6403C155.669 38.4335 155.145 40.899 154.112 42.8964V42.8807Z" fill="#F1F1F1"/>
<path d="M265.094 12.4679L244.547 33.2685C245.873 34.9381 246.659 37.0447 246.659 39.3542C246.659 44.7377 242.343 49.1225 237.01 49.1225C234.728 49.1225 232.647 48.3267 230.998 46.9847L219.145 58.9844H416.015V12.4679H265.094ZM279.985 47.0471C278.505 48.2799 276.486 48.8884 273.942 48.8884C271.985 48.8884 270.289 48.5139 268.871 47.7493C267.453 47.0003 266.204 45.9392 265.125 44.566L266.99 42.7091C267.854 43.9262 268.84 44.8313 269.981 45.4243C271.121 46.0172 272.462 46.3137 274.035 46.3137C275.607 46.3137 276.963 45.9392 277.965 45.2058C278.967 44.4568 279.476 43.4425 279.476 42.1161C279.476 41.1019 279.245 40.2592 278.782 39.6038C278.32 38.9485 277.719 38.4179 276.963 38.0122C276.224 37.6065 275.391 37.232 274.482 36.9199C273.572 36.5922 272.678 36.2645 271.784 35.9056C270.89 35.5467 270.058 35.0942 269.303 34.548C268.547 34.0019 267.931 33.3153 267.484 32.4727C267.037 31.63 266.805 30.5533 266.805 29.2426C266.805 27.8538 267.129 26.6678 267.792 25.6692C268.455 24.6861 269.364 23.9215 270.505 23.3909C271.661 22.8604 272.971 22.5951 274.435 22.5951C276.069 22.5951 277.534 22.9228 278.829 23.5626C280.108 24.2024 281.187 25.0762 282.035 26.1685L280.2 28.0254C279.414 27.0892 278.567 26.3714 277.626 25.872C276.701 25.3727 275.607 25.123 274.358 25.123C272.894 25.123 271.723 25.4663 270.829 26.1685C269.95 26.8551 269.503 27.8226 269.503 29.0709C269.503 30.0384 269.734 30.8186 270.181 31.4116C270.628 32.0045 271.245 32.5039 272 32.894C272.755 33.2841 273.588 33.643 274.482 33.9551C275.376 34.2672 276.27 34.6105 277.179 34.9694C278.089 35.3439 278.906 35.812 279.661 36.3737C280.401 36.9511 281.017 37.6689 281.48 38.5427C281.942 39.4166 282.173 40.5401 282.173 41.8977C282.173 44.0979 281.434 45.8144 279.954 47.0471H279.985ZM303.923 48.5139H287.291V22.954H303.692V25.4507H289.973V34.2203H302.751V36.639H289.973V46.0328H303.923V48.5295V48.5139ZM325.025 47.8273C323.453 48.5295 321.711 48.8884 319.784 48.8884C317.965 48.8884 316.285 48.5607 314.744 47.8897C313.202 47.2188 311.846 46.2825 310.69 45.0654C309.534 43.8482 308.655 42.4438 308.023 40.8522C307.407 39.2605 307.083 37.5441 307.083 35.7028C307.083 33.8614 307.391 32.1606 308.023 30.5533C308.64 28.9617 309.534 27.5573 310.659 26.3714C311.8 25.1854 313.141 24.2492 314.682 23.5782C316.224 22.9072 317.888 22.5795 319.676 22.5795C321.603 22.5795 323.345 22.9228 324.871 23.625C326.397 24.3116 327.738 25.2791 328.894 26.4806L327.06 28.3375C326.181 27.3544 325.118 26.5742 323.869 26.0125C322.62 25.4507 321.233 25.1698 319.692 25.1698C318.274 25.1698 316.963 25.4351 315.777 25.95C314.59 26.465 313.557 27.214 312.663 28.1659C311.769 29.1177 311.091 30.2412 310.613 31.5052C310.135 32.7847 309.904 34.1735 309.904 35.6872C309.904 37.2008 310.15 38.6052 310.644 39.8847C311.137 41.1799 311.815 42.2878 312.694 43.2396C313.572 44.1915 314.62 44.9249 315.807 45.4555C317.01 45.9704 318.32 46.2357 319.738 46.2357C321.356 46.2357 322.79 45.9548 324.054 45.3774C325.318 44.8157 326.382 44.0355 327.26 43.0368L329.094 44.9249C327.969 46.1421 326.628 47.0939 325.056 47.8117L325.025 47.8273ZM352.432 39.3698C352.432 41.1799 352.015 42.8027 351.198 44.2383C350.382 45.6739 349.256 46.813 347.823 47.6401C346.389 48.4671 344.771 48.8884 342.967 48.8884C341.164 48.8884 339.499 48.4671 338.066 47.6401C336.632 46.813 335.507 45.6739 334.674 44.2227C333.842 42.7715 333.426 41.1487 333.426 39.3386V22.954H336.139V39.1825C336.139 40.6181 336.432 41.8665 337.017 42.9276C337.603 43.9887 338.42 44.8157 339.453 45.3774C340.486 45.9548 341.657 46.2357 342.952 46.2357C344.247 46.2357 345.403 45.9548 346.42 45.3774C347.437 44.8157 348.239 44.0043 348.84 42.9432C349.441 41.8977 349.734 40.6493 349.734 39.2137V22.9384H352.416V39.3542L352.432 39.3698ZM373.842 48.5139L364.671 37.0759H361.249V48.5139H358.566V22.954H367.63C369.264 22.954 370.682 23.2505 371.854 23.8591C373.025 24.4676 373.935 25.3103 374.551 26.3714C375.168 27.4325 375.491 28.6496 375.491 30.0072C375.491 31.3647 375.183 32.6599 374.551 33.721C373.919 34.7821 373.025 35.6091 371.854 36.1865C370.759 36.7326 369.449 37.0135 367.954 37.0447L377.279 48.4983H373.827L373.842 48.5139ZM397.688 25.4351H383.969V34.2047H396.748V36.6234H383.969V46.0172H397.688V48.5139H381.287V22.954H397.688V25.4507V25.4351ZM406.382 23.6406H405.118V26.9487H404.347V23.6406H403.083V22.954H406.382V23.6406ZM410.605 26.9487H409.834V24.5613L408.863 26.1217H408.339L407.383 24.5613V26.9487H406.613V22.9384H407.152L408.617 25.2791L410.066 22.9384H410.605V26.9487Z" fill="#00DBFF"/>
<path d="M372.763 30.0539C372.763 28.6651 372.316 27.5416 371.438 26.6522C370.559 25.7783 369.28 25.3258 367.615 25.3258H361.233V34.7664H367.615C369.28 34.7664 370.544 34.3451 371.438 33.4869C372.316 32.6286 372.763 31.4895 372.763 30.0539Z" fill="#00DBFF"/>
<path d="M177.788 39.3697C177.788 44.7532 182.104 49.1381 187.437 49.1381C189.719 49.1381 191.8 48.3422 193.449 47.0003L179.9 33.2841C178.574 34.9537 177.788 37.0759 177.788 39.3697Z" fill="#00DBFF"/>
</g>
<defs>
<clipPath id="clip0_1_351">
<rect width="416" height="59" fill="white"/>
</clipPath>
</defs>
</svg>
