<svg width="235" height="86" viewBox="0 0 235 86" fill="none" xmlns="http://www.w3.org/2000/svg">
<path d="M132.566 53.3434C132.566 59.0994 137.207 63.7574 142.943 63.7574C145.396 63.7574 147.634 62.909 149.408 61.4783L134.837 46.8555C133.411 48.6355 132.566 50.898 132.566 53.3434Z" fill="#00DBFF"/>
<path d="M198.21 24.6629H141.004C139.926 24.6629 138.849 24.3801 137.904 23.8477L115.873 11.4208C115.558 11.2378 115.177 11.5539 115.31 11.9033L119.686 23.3986C120.001 24.2304 120.498 24.979 121.112 25.6111L169.598 74.2707L218.085 25.6111C218.715 24.979 219.196 24.2304 219.511 23.3986L223.887 11.9033C224.019 11.5539 223.655 11.2378 223.323 11.4208L201.293 23.8477C200.348 24.3801 199.287 24.6629 198.193 24.6629H198.21Z" fill="#F1F1F1"/>
<path d="M189.789 61.4627C191.562 62.8933 193.817 63.7418 196.253 63.7418C201.989 63.7418 206.63 59.0838 206.63 53.3278C206.63 50.8657 205.785 48.6199 204.359 46.8398L189.789 61.4627Z" fill="#00DBFF"/>
<rect x="11.085" y="11.0859" width="93.1132" height="9.97641" fill="#F1F1F1"/>
<rect x="11.085" y="28.8203" width="93.1132" height="9.97641" fill="#F1F1F1"/>
<rect x="11.085" y="46.5586" width="93.1132" height="9.97641" fill="#F1F1F1"/>
<rect x="11.085" y="64.293" width="93.1132" height="9.97641" fill="#F1F1F1"/>
<rect x="1" y="1" width="233" height="83.3538" stroke="#F1F1F1" stroke-width="2"/>
</svg>
