<svg width="173" height="60" viewBox="0 0 173 60" fill="none" xmlns="http://www.w3.org/2000/svg">
<g clip-path="url(#clip0_32_1426)">
<path d="M10.6675 25.7911C10.6675 29.3277 13.5312 32.1897 17.07 32.1897C18.5836 32.1897 19.9644 31.6684 21.0587 30.7894L12.0687 21.8047C11.1891 22.8984 10.6675 24.2885 10.6675 25.7911Z" fill="#00DBFF"/>
<path d="M51.1689 8.16924H15.8734C15.2087 8.16924 14.5439 7.99548 13.9609 7.66839L0.368394 0.0329585C0.163841 -0.0794776 -0.061166 0.124952 0.0206548 0.329381L2.72074 7.39241C2.91507 7.90349 3.2219 8.36345 3.60032 8.75187L33.5161 38.6497L63.4318 8.75187C63.8205 8.36345 64.1171 7.90349 64.3114 7.39241L67.0115 0.329381C67.0933 0.11473 66.8683 -0.0794776 66.6638 0.0329585L53.0713 7.66839C52.4883 7.99548 51.8337 8.16924 51.1587 8.16924H51.1689Z" fill="#F1F1F1"/>
<path d="M45.9731 30.7815C47.0675 31.6606 48.4585 32.1819 49.9619 32.1819C53.5007 32.1819 56.3644 29.3199 56.3644 25.7832C56.3644 24.2705 55.8428 22.8906 54.9632 21.7969L45.9731 30.7815Z" fill="#00DBFF"/>
<path d="M155.858 46.4678H156.687V48.6347H157.208V46.4678H158.037V46.0078H155.858V46.4678Z" fill="#F1F1F1"/>
<path d="M160.481 46.0078L159.52 47.541L158.559 46.0078H158.201V48.6347H158.712V47.0708L159.346 48.093H159.694L160.338 47.0708V48.6347H160.839V46.0078H160.481Z" fill="#F1F1F1"/>
<path d="M87.7627 53.2459C87.3536 52.9393 86.9036 52.6837 86.4127 52.4793C85.9218 52.2749 85.4309 52.0909 84.9399 51.9273C84.449 51.7638 83.999 51.5696 83.5899 51.3549C83.1706 51.1403 82.8433 50.8745 82.5978 50.5577C82.3523 50.2408 82.2296 49.8115 82.2296 49.2902C82.2296 48.6258 82.4751 48.1045 82.9558 47.7263C83.4365 47.3481 84.0808 47.1641 84.8786 47.1641C85.5638 47.1641 86.157 47.297 86.6684 47.5628C87.1798 47.8285 87.64 48.2169 88.0696 48.728L89.0719 47.7263C88.6014 47.1335 88.0184 46.6735 87.3127 46.326C86.607 45.9785 85.8093 45.8047 84.9195 45.8047C84.1217 45.8047 83.4058 45.9478 82.7717 46.234C82.1478 46.5202 81.6466 46.929 81.2887 47.4708C80.9307 48.0023 80.7466 48.6463 80.7466 49.3924C80.7466 50.0977 80.8693 50.6803 81.1148 51.1403C81.3603 51.59 81.6978 51.9682 82.1069 52.2647C82.5262 52.5611 82.9762 52.8064 83.4569 53.0006C83.9478 53.1948 84.4388 53.3788 84.9297 53.5526C85.4206 53.7263 85.8706 53.9205 86.2797 54.1454C86.6888 54.3703 87.0161 54.6565 87.2718 55.004C87.5275 55.3618 87.6502 55.8115 87.6502 56.3532C87.6502 57.0585 87.3741 57.6207 86.832 58.0193C86.2797 58.418 85.5638 58.6224 84.6842 58.6224C83.8047 58.6224 83.0887 58.4589 82.4648 58.142C81.841 57.8251 81.2989 57.3345 80.8284 56.6803L79.8057 57.682C80.3886 58.418 81.0739 58.9904 81.8512 59.3992C82.6285 59.8081 83.549 60.0125 84.6229 60.0125C86.0138 60.0125 87.1184 59.6854 87.9264 59.021C88.7344 58.3566 89.1435 57.4367 89.1435 56.2408C89.1435 55.5049 89.0207 54.9018 88.7651 54.4214C88.5094 53.9512 88.1821 53.5526 87.773 53.2459H87.7627Z" fill="#F1F1F1"/>
<path d="M93.3878 53.3877H100.373V52.0794H93.3878V47.3468H100.895V46.0078H93.3878H92.8867H91.9253V59.8068H92.8867H93.3878H101.018V58.4576H93.3878V53.3877Z" fill="#F1F1F1"/>
<path d="M112.002 58.1201C111.317 58.4267 110.529 58.58 109.65 58.58C108.872 58.58 108.157 58.4369 107.502 58.1609C106.847 57.885 106.275 57.4863 105.794 56.965C105.313 56.454 104.935 55.8509 104.669 55.1456C104.403 54.4506 104.27 53.6942 104.27 52.8764C104.27 52.0587 104.403 51.3126 104.659 50.6175C104.914 49.9224 105.293 49.3296 105.784 48.8083C106.275 48.2972 106.837 47.8986 107.492 47.6124C108.136 47.3364 108.852 47.1933 109.629 47.1933C110.468 47.1933 111.235 47.3466 111.92 47.6431C112.606 47.9395 113.188 48.3586 113.669 48.9003L114.671 47.8986C114.048 47.2444 113.311 46.7333 112.473 46.3551C111.634 45.977 110.693 45.793 109.629 45.793C108.658 45.793 107.747 45.977 106.899 46.3347C106.06 46.6925 105.323 47.1933 104.7 47.8373C104.076 48.4812 103.595 49.2274 103.257 50.0962C102.92 50.9548 102.746 51.885 102.746 52.8764C102.746 53.8679 102.92 54.7879 103.257 55.6567C103.595 56.5153 104.086 57.2819 104.71 57.9361C105.334 58.5902 106.08 59.1013 106.929 59.4591C107.778 59.8168 108.699 60.0008 109.691 60.0008C110.744 60.0008 111.705 59.8066 112.565 59.4284C113.424 59.0502 114.16 58.5289 114.774 57.8747L113.771 56.8526C113.291 57.3841 112.708 57.8134 112.012 58.1201H112.002Z" fill="#F1F1F1"/>
<path d="M126.075 54.7881C126.075 55.5649 125.912 56.2395 125.584 56.8017C125.257 57.3741 124.817 57.8034 124.265 58.11C123.713 58.4167 123.079 58.57 122.373 58.57C121.667 58.57 121.023 58.4167 120.46 58.11C119.888 57.8034 119.448 57.3639 119.131 56.7915C118.814 56.2191 118.65 55.5444 118.65 54.7676V46.0078H117.167V54.8494C117.167 55.8204 117.392 56.6995 117.852 57.4865C118.302 58.2736 118.926 58.8869 119.703 59.3264C120.481 59.7761 121.381 60.001 122.383 60.001C123.385 60.001 124.255 59.7761 125.042 59.3264C125.82 58.8766 126.443 58.2634 126.883 57.4967C127.333 56.7199 127.558 55.8511 127.558 54.8698V46.0078H126.096V54.7881H126.075Z" fill="#F1F1F1"/>
<path d="M138.144 53.1502C138.788 52.8333 139.279 52.3938 139.617 51.8214C139.954 51.249 140.128 50.5744 140.128 49.818C140.128 49.0616 139.954 48.4279 139.617 47.8555C139.279 47.2831 138.788 46.8333 138.144 46.5063C137.5 46.1792 136.732 46.0156 135.832 46.0156H130.872V59.8146H132.335V53.6408H134.206L139.218 59.8146H141.1L135.996 53.6306C136.814 53.6102 137.53 53.4569 138.123 53.1707L138.144 53.1502ZM132.355 47.2933H135.843C136.753 47.2933 137.448 47.5284 137.929 48.0088C138.41 48.479 138.655 49.0923 138.655 49.8385C138.655 50.5846 138.41 51.2286 137.929 51.6885C137.448 52.1485 136.753 52.3836 135.843 52.3836H132.355V47.2933Z" fill="#F1F1F1"/>
<path d="M152.268 47.3468V46.0078H144.772H144.27H143.309V59.8068H144.27H144.772H152.268V58.4576H144.772V53.3877H151.747V52.0794H144.772V47.3468H152.268Z" fill="#F1F1F1"/>
<path d="M171.772 17.1935C170.954 15.3332 169.819 13.7284 168.356 12.3792C166.894 11.03 165.176 9.99761 163.192 9.26167C161.207 8.52572 159.049 8.16797 156.697 8.16797H147.247V33.9772L137.336 8.16797H129.89L119.857 34.0283V8.16797H112.156V36.0419L103.329 27.2208C107.349 26.0453 110.223 22.3145 110.223 17.8886C110.223 12.5223 106.009 8.16797 100.639 8.16797H68.4532L61.8257 14.7813L70.7135 14.7915V38.6484H78.4149V14.7915H83.8764L87.2924 11.3775V14.8017V38.6484H94.9938V27.7932L105.856 38.6484H125.932L127.814 33.323H139.157L140.987 38.6484H156.779C159.1 38.6484 161.248 38.2804 163.212 37.5547C165.176 36.829 166.894 35.7864 168.356 34.4371C169.819 33.0879 170.954 31.4831 171.772 29.6228C172.591 27.7625 173 25.6876 173 23.3877C173 21.0879 172.591 19.064 171.772 17.1935ZM99.7599 20.9959H95.0143V14.7915H99.7701C101.488 14.7915 102.869 16.1816 102.869 17.8886C102.869 19.5956 101.478 20.9857 99.7701 20.9857L99.7599 20.9959ZM129.972 27.2106L133.562 17.0402L137.06 27.2106H129.972ZM164.092 28.0896C163.406 29.398 162.424 30.3792 161.146 31.0334C159.868 31.6978 158.374 32.0249 156.656 32.0249H154.948V14.7915H156.656C158.374 14.7915 159.868 15.1186 161.126 15.783C162.384 16.4474 163.365 17.4082 164.071 18.6859C164.777 19.9635 165.125 21.5172 165.125 23.3468C165.125 25.1765 164.777 26.7915 164.092 28.0998V28.0896Z" fill="#F1F1F1"/>
</g>
<defs>
<clipPath id="clip0_32_1426">
<rect width="173" height="60" fill="white"/>
</clipPath>
</defs>
</svg>
